<?xml version="1.0" encoding="utf-8"?>
<!-- Generator: Adobe Illustrator 28.0.0, SVG Export Plug-In . SVG Version: 6.00 Build 0)  -->
<svg version="1.1" id="Слой_1" xmlns="http://www.w3.org/2000/svg" xmlns:xlink="http://www.w3.org/1999/xlink" x="0px" y="0px"
	 viewBox="0 0 1000 273.4606934" enable-background="new 0 0 1000 273.4606934" xml:space="preserve">
<path fill-rule="evenodd" clip-rule="evenodd" fill="#FF6600" d="M610.989563,132.6521454V0l-41.0020142,10.9190922v90.422699
	c-17.4968872-16.7517471-35.081543-21.7070389-55.9112549-21.7070389c-53.4991455,0-96.9126892,43.4135361-96.9126892,96.9132385
	c0,53.4991608,43.4135437,96.9127045,96.9126892,96.9127045c42.0983276,0,77.8811035-26.8373718,91.3000488-64.2871094
	C613.1382446,187.4670715,610.989563,155.4549408,610.989563,132.6521454 M57.3586922,136.9934387
	c-10.0861626,10.1295319-16.3572273,24.118576-16.3572273,39.5545502c0,30.8713989,25.0398254,55.9112244,55.911232,55.9112244
	c30.8719482,0,55.911232-25.0398254,55.911232-55.9112244c0-9.2527008-2.2798462-17.9797363-6.2266235-25.6538239
	l-37.6692123,37.66922l-28.9860764-28.986084l68.4967194-68.4967194
	c25.872757,24.513092,45.3871918,44.8165588,45.3871918,85.4674072c0,53.4991608-43.4135284,96.9127045-96.9132309,96.9127045
	C43.4135361,273.4606934,0,230.0471497,0,176.5479889c0-27.4074707,11.4013996-52.1839294,29.6878548-69.8125l67.2248383-67.1809464
	l28.9427185,28.9421768L57.3586922,136.9934387z M949.8770142,85.9497147l-46.965271,59.0684433l-46.9213867-59.0684433
	l-50.1230469,0.1316833l71.4789429,91.1239395l-71.4789429,89.9403839l52.18396-0.1750488l44.8604736-57.1392059
	l44.8604126,57.1392059L1000,267.1457214l-71.4788818-89.9403839L1000,86.081398L949.8770142,85.9497147z M722.6802979,79.6347504
	c53.4992065,0,96.9127197,43.4135361,96.9127197,96.9132385c0,53.4991608-43.4135132,96.9127045-96.9127197,96.9127045
	c-53.5435791,0-96.9126587-43.4135437-96.9126587-96.9127045
	C625.7676392,123.0482864,669.1367188,79.6347504,722.6802979,79.6347504z M722.6802979,120.6367493
	c30.87146,0,55.9112549,25.0392914,55.9112549,55.9112396c0,30.8713989-25.0397949,55.9112244-55.9112549,55.9112244
	c-30.8719482,0-55.9111938-25.0398254-55.9111938-55.9112244
	C666.769104,145.6760406,691.8083496,120.6367493,722.6802979,120.6367493z M305.5167236,79.6347504
	c53.5430603,0,96.9126892,43.4135361,96.9126892,96.9132385c0,53.4991608-43.3696289,96.9127045-96.9126892,96.9127045
	c-53.4997101,0-96.9127045-43.4135437-96.9127045-96.9127045
	C208.6040192,123.0482864,252.0170135,79.6347504,305.5167236,79.6347504z M305.5167236,120.6367493
	c30.8719482,0,55.9112244,25.0392914,55.9112244,55.9112396c0,30.8713989-25.0392761,55.9112244-55.9112244,55.9112244
	s-55.9112396-25.0398254-55.9112396-55.9112244C249.605484,145.6760406,274.6447754,120.6367493,305.5167236,120.6367493z
	 M514.0762939,120.6367493c30.9158325,0,55.9112549,25.0392914,55.9112549,55.9112396
	c0,30.8713989-24.9954224,55.9112244-55.9112549,55.9112244c-30.8713989,0-55.9112244-25.0398254-55.9112244-55.9112244
	C458.1650696,145.6760406,483.204895,120.6367493,514.0762939,120.6367493z"/>
</svg>
