<?xml version="1.0" encoding="utf-8"?>
<!-- Generator: Adobe Illustrator 28.0.0, SVG Export Plug-In . SVG Version: 6.00 Build 0)  -->
<svg version="1.1" id="Слой_1" xmlns="http://www.w3.org/2000/svg" xmlns:xlink="http://www.w3.org/1999/xlink" x="0px" y="0px"
	 viewBox="0 0 1000 152.6717987" enable-background="new 0 0 1000 152.6717987" xml:space="preserve">
<path fill="#000001" d="M304.8904114,72.0268173c0,0-15.0212402,1.0442886-15.0212402,17.3851624v59.9508591h-41.027832V41.7092476
	h38.0080566l1.0653992,11.6839905c0,0,14.2098389-15.1338081,36.4700012-15.1338081
	c22.2390137,0,38.1774597,18.1607399,38.3609009,43.1091537v68.015358h-43.0175171V84.6775818
	C319.7281799,84.6775818,320.1726379,72.0268173,304.8904114,72.0268173"/>
<path fill="#000001" d="M89.5204926,1.139118c-7.9021759-1.5735404-23.4313889-1.058501-23.4313889-1.058501H0v149.2667236
	h45.5293236V103.754715h28.9840813l0.6561508,0.0775146c6.5828247,0,14.7531281-1.241951,14.7531281-1.241951
	c5.62323-0.7338028,10.4986115-2.786644,14.6895828-4.7903824c26.2818375-12.5590439,26.5005569-45.8471336,26.5005569-45.8471336
	C131.1128235,6.4660735,89.5204926,1.139118,89.5204926,1.139118 M72.135704,67.4818954L45.5293236,67.489212v-30.952755H72.135704
	c0,0,15.409256-0.127037,15.409256,15.1553421C87.54496,66.9668503,72.135704,67.4818954,72.135704,67.4818954"/>
<path fill="#000001" d="M484.3617859,113.5572586c0,42.6578445,55.3929138,39.0383682,55.3929138,39.0383682
	c56.6064453,0,53.5302734-38.4806976,53.5302734-38.4806976c0-20.8349838-18.7536011-28.8994827-29.8942871-31.7640686
	c-11.3241577-2.8787918-21.2088623-4.7344055-29.6260986-6.1804733c-8.4313965-1.4465027-8.2267456-6.2515335-8.2267456-6.2515335
	c0-6.9069519,11.7191772-7.5563507,11.7191772-7.5563507c15.1482544,0,14.2310181,10.5832901,14.2310181,10.5832901h37.598877
	c0-37.1332321-51.829895-33.633461-51.829895-33.633461s-52.1262207-1.5735397-52.1262207,35.4115524
	c0,28.574791,37.2390747,32.1236496,37.2390747,32.1236496c9.1016235,1.1924286,22.6623535,4.0781174,22.6623535,4.0781174
	c8.0150146,2.5187836,7.1895752,8.4314041,7.1895752,8.4314041c0,8.9748688-12.1989746,9.1509857-12.1989746,9.1509857
	c-19.3533325,0-17.6387939-14.9507828-17.6387939-14.9507828H484.3617859z"/>
<path fill="#000001" d="M238.7688293,115.1432877V79.71064c-0.084671-42.2625275-52.0909271-40.5201797-52.0909271-40.5201797
	c-62.3990479,0-52.824707,39.5533981-52.824707,39.5533981l36.2160034,0.7549057
	c0-3.2736893,1.1994476-14.2591858,15.2893372-14.2591858c14.0828247,0,13.4901581,9.4899063,13.4901581,9.4899063
	c0-0.0073242,0.0634918,5.5241852-4.8048096,7.2316513c-4.8753815,1.728569-21.3288727,4.6706696-21.3288727,4.6706696
	l-8.4172211,1.5735397c-24.2992249,4.9458389-35.9479065,16.0088577-35.9479065,32.596489
	s11.9803009,31.5948334,35.8067932,31.5948334c23.8335571,0,34.2616272-13.5253906,34.2616272-13.5253906
	c1.298233,8.6923676,4.049881,10.5126648,4.049881,10.5126648h41.5429382
	C238.2114258,146.611084,238.7688293,115.1432877,238.7688293,115.1432877 M179.0367889,128.047699
	c-7.5070953,0-12.6435242-3.0338211-12.6435242-9.8705826c0-6.8578644,10.145874-8.960228,10.145874-8.960228
	c12.8974915-3.0200424,22.5706024-7.5705643,22.5706024-7.5705643
	C203.6464539,128.5347443,179.0367889,128.047699,179.0367889,128.047699"/>
<path fill="#000001" d="M477.7655945,115.1432877V79.71064c-0.105835-42.2625275-52.105072-40.5201797-52.105072-40.5201797
	c-62.4060669,0-52.8176575,39.5533981-52.8176575,39.5533981l36.2230835,0.7549057
	c0-3.2736893,1.1923828-14.2591858,15.2752075-14.2591858c14.0899048,0,13.4972534,9.4899063,13.4972534,9.4899063
	c0-0.0073242,0.0563965,5.5241852-4.8048401,7.2316513c-4.8683167,1.728569-21.3288574,4.6706696-21.3288574,4.6706696
	l-8.4172363,1.5735397c-24.2992249,4.9458389-35.9408569,16.0088577-35.9408569,32.596489
	s11.9803162,31.5948334,35.8068237,31.5948334c23.8335266,0,34.2333679-13.5253906,34.2333679-13.5253906
	c1.3123169,8.6923676,4.078125,10.5126648,4.078125,10.5126648h41.5287781
	C477.2011414,146.611084,477.7655945,115.1432877,477.7655945,115.1432877 M418.0335388,128.047699
	c-7.5071106,0-12.6435547-3.0338211-12.6435547-9.8705826c0-6.8578644,10.145874-8.960228,10.145874-8.960228
	c12.8904724-3.0200424,22.5635681-7.5705643,22.5635681-7.5705643
	C442.6290894,128.5347443,418.0335388,128.047699,418.0335388,128.047699"/>
<path fill="#000001" d="M694.6890259,52.0668793c-2.4411621-1.9473305-5.3903809-3.6685791-8.2337646-5.4324608
	c0,0-3.9158936-1.9826431-10.0541382-3.8946609c-5.3128662-1.644165-12.3118896-3.2172775-19.9459229-3.4149361
	l-2.7657471-0.0353127c-7.6976318,0.1765594-14.7954712,1.7780914-20.1506348,3.4149361
	c-6.1665039,1.8978081-10.0470581,3.8873405-10.0470581,3.8873405c-2.8856812,1.7638817-5.8208008,3.4855614-8.2550049,5.4471054
	c-18.5841675,14.9434624-19.8824463,37.3093605-19.9106445,42.6647377v2.8503723
	c0.1199341,6.0676498,1.8273926,27.6786346,19.9106445,42.2272186c2.4342041,1.9546509,5.3693237,3.6832123,8.2550049,5.4539795
	c0,0,3.8805542,1.9684448,10.0470581,3.8662415c5.3551636,1.651062,12.4530029,3.2667999,20.1506348,3.4360504l2.7657471-0.0491028
	c7.6340332-0.1907654,14.6330566-1.7849731,19.9459229-3.4080353c6.1382446-1.9047089,10.0541382-3.8804626,10.0541382-3.8804626
	c2.8433838-1.7849731,5.7926025-3.4855499,8.2337646-5.4677734c18.1891479-14.6123047,19.8189697-36.3645401,19.9036255-42.2982635
	l0.0070801-2.6880264C714.5715332,89.3835602,713.2591553,67.0034561,694.6890259,52.0668793 M672.972168,97.7654419
	c-0.2681885,23.6504745-11.1195068,27.8414154-15.9313965,28.4550705c-2.7022705,0.3600159-4.0075073,0.0775146-4.0075073,0.0775146
	c-4.3885498-0.4370956-15.8890381-3.8451385-16.4605713-27.6153336v-3.3512039
	c0.5150757-23.9674225,12.0649414-27.3823547,16.4605713-27.8198853c0,0,1.3052368-0.2893829,4.0075073,0.0848389
	c4.8118896,0.6205444,15.6773682,4.7977066,15.9313965,28.511055V97.7654419"/>
<path fill="#000001" d="M776.187439,72.0268173c0,0-15.0142212,1.0442886-15.0142212,17.3851624v59.9508591h-41.0278931V41.7092476
	h38.0222778l1.0582886,11.6839905c0,0,14.2028198-15.1338081,36.4417725-15.1338081
	c22.2531738,0,38.1845093,18.1607399,38.3820801,43.1091537v68.015358h-43.0386353V84.6775818
	C791.0111084,84.6775818,791.4625854,72.0268173,776.187439,72.0268173"/>
<rect x="841.5584106" y="41.6795311" fill="#000001" width="40.2799873" height="107.7026901"/>
<rect x="841.5584106" y="0.0732962" fill="#000001" width="40.2799873" height="26.7333927"/>
<path fill="#000001" d="M996.3240967,82.2242508h-34.8825073c0,0-1.1924438-13.1653748-15.1553345-13.1653748
	c0,0-19.2192383-1.5735397-19.2192383,27.1282883c0,28.6949387,19.9883423,27.1287155,19.9883423,27.1287155
	s15.8043213,1.051178,15.8043213-18.7110901H1000l-0.0211792,1.7070389
	c-0.3104248,8.5442276-4.5791016,46.0869904-55.4352417,46.0869904c0,0-34.3886719,3.3654175-52.3096924-32.7166367
	c0,0-4.6002197-11.6413574-4.6002197-25.6115875c0-13.934494,5.1928711-50.0729523,55.7528076-54.5601692l3.0267944-0.0426331
	c51.2371826,1.051609,52.267395,42.7564583,52.267395,42.7564583H996.3240967z"/>
</svg>
